<svg width="24" height="24" viewBox="0 0 24 24" fill="none" xmlns="http://www.w3.org/2000/svg">
<path d="M21.743 12.331L12.743 2.33103C12.364 1.90903 11.636 1.90903 11.257 2.33103L2.257 12.331C2.12769 12.4747 2.04279 12.6527 2.01256 12.8437C1.98234 13.0346 2.00809 13.2301 2.0867 13.4067C2.16531 13.5833 2.2934 13.7333 2.45549 13.8386C2.61758 13.9439 2.80671 14 3 14H5V21C5 21.2652 5.10535 21.5196 5.29289 21.7071C5.48043 21.8947 5.73478 22 6 22H18C18.2652 22 18.5196 21.8947 18.7071 21.7071C18.8946 21.5196 19 21.2652 19 21V14H21C21.1937 14.0009 21.3834 13.9453 21.546 13.8402C21.7087 13.735 21.8372 13.5848 21.916 13.4079C21.9947 13.231 22.0203 13.035 21.9896 12.8438C21.9589 12.6525 21.8732 12.4744 21.743 12.331ZM12 16C11.2043 16 10.4413 15.684 9.87868 15.1213C9.31607 14.5587 9 13.7957 9 13C9 12.2044 9.31607 11.4413 9.87868 10.8787C10.4413 10.3161 11.2043 10 12 10C12.7956 10 13.5587 10.3161 14.1213 10.8787C14.6839 11.4413 15 12.2044 15 13C15 13.7957 14.6839 14.5587 14.1213 15.1213C13.5587 15.684 12.7956 16 12 16Z" fill="#130F40"/>
</svg>
