<svg width="40" height="40" viewBox="0 0 40 40" fill="none" xmlns="http://www.w3.org/2000/svg">
<path fill-rule="evenodd" clip-rule="evenodd" d="M20 0C8.95431 0 0 8.95431 0 20C0 31.0457 8.95431 40 20 40C31.0457 40 40 31.0457 40 20C40 8.95431 31.0457 0 20 0ZM20.7439 10.7278C21.5126 9.79266 22.8251 9.07641 23.9501 9C24.1414 10.2792 23.6182 11.5261 22.9282 12.4059C22.212 13.3303 20.9857 14.0517 19.7876 14.0517H19.6976C19.4726 12.8325 20.0464 11.5753 20.7439 10.7278ZM21.9878 14.4271C22.6301 14.1833 23.3361 13.9153 24.3664 13.9153L24.3617 13.9172C25.7899 13.9172 27.3049 14.699 28.3831 16.049C24.851 17.9901 25.4248 23.0531 28.9962 24.4087C28.5087 25.5033 28.2724 25.9889 27.6368 26.9564C26.7537 28.3017 25.511 29.9798 23.9642 29.9962H23.936C23.3182 29.9962 22.9076 29.8076 22.4654 29.6045C21.9495 29.3675 21.3906 29.1108 20.4092 29.1108H20.381C19.3851 29.1163 18.8096 29.3739 18.2808 29.6106C17.8271 29.8137 17.4079 30.0014 16.7871 30.0014H16.759C15.2121 29.985 14.0328 28.4704 13.1496 27.12C10.6807 23.3475 10.422 18.9192 11.9464 16.5679C13.032 14.9006 14.7415 13.9218 16.3446 13.9218C17.2031 13.9218 17.8945 14.1678 18.5524 14.402C19.1496 14.6145 19.7192 14.8172 20.3614 14.8172C20.9601 14.8172 21.4518 14.6305 21.9878 14.4271Z" fill="white"/>
</svg>
