<svg width="18" height="18" viewBox="0 0 18 18" fill="none" xmlns="http://www.w3.org/2000/svg">
<path d="M12 18H9.98438V15.9844H12V18ZM9.98438 11.0156H8.01562V15.9844H9.98438V11.0156ZM18 9H15.9844V12.9844H18V9ZM15.9844 6.98438H14.0156V9H15.9844V6.98438ZM3.98438 9H2.01562V11.0156H3.98438V9ZM2.01562 6.98438H0V9H2.01562V6.98438ZM9 2.01562H11.0156V0H9V2.01562ZM1.5 1.5V4.5H4.5V1.5H1.5ZM6 6H0V0H6V6ZM1.5 13.5V16.5H4.5V13.5H1.5ZM6 18H0V12H6V18ZM13.5 1.5V4.5H16.5V1.5H13.5ZM18 6H12V0H18V6ZM15.9844 15.9844V12.9844H12V15H14.0156V18H18V15.9844H15.9844ZM14.0156 9H9.98438V11.0156H14.0156V9ZM9.98438 6.98438H3.98438V9H6V11.0156H8.01562V9H9.98438V6.98438ZM11.0156 6V3.98438H9V2.01562H6.98438V6H11.0156ZM3.75 2.25H2.25V3.75H3.75V2.25ZM3.75 14.25H2.25V15.75H3.75V14.25ZM15.75 2.25H14.25V3.75H15.75V2.25Z" fill="black"/>
</svg>
