<svg width="12" height="12" viewBox="0 0 12 12" fill="none" xmlns="http://www.w3.org/2000/svg">
<path d="M10.6562 0H1.34375C0.96875 0 0.645833 0.135417 0.375 0.40625C0.125 0.65625 0 0.96875 0 1.34375V10.6562C0 11.0312 0.125 11.3542 0.375 11.625C0.645833 11.875 0.96875 12 1.34375 12H10.6562C11.0312 12 11.3438 11.875 11.5938 11.625C11.8646 11.3542 12 11.0312 12 10.6562V1.34375C12 0.96875 11.8646 0.65625 11.5938 0.40625C11.3438 0.135417 11.0312 0 10.6562 0ZM4 9.34375H2.65625V6H4V9.34375ZM6.65625 9.34375H5.34375V7.34375H6.65625V9.34375ZM6.65625 6H5.34375V4.65625H6.65625V6ZM9.34375 9.34375H8V2.65625H9.34375V9.34375Z" fill="black"/>
</svg>
