<svg width="12" height="12" viewBox="0 0 12 12" fill="none" xmlns="http://www.w3.org/2000/svg">
<path d="M11.3438 8.25C11.5312 8.25 11.6875 8.3125 11.8125 8.4375C11.9375 8.5625 12 8.71875 12 8.90625V11.2188C12 11.7396 11.7812 12 11.3438 12C8.23958 12 5.57292 10.8854 3.34375 8.65625C1.11458 6.42708 0 3.76042 0 0.65625C0 0.21875 0.260417 0 0.78125 0H3.09375C3.28125 0 3.4375 0.0625 3.5625 0.1875C3.6875 0.3125 3.75 0.46875 3.75 0.65625C3.75 1.46875 3.875 2.25 4.125 3C4.20833 3.27083 4.15625 3.5 3.96875 3.6875L2.6875 4.8125C3.64583 6.8125 5.17708 8.32292 7.28125 9.34375L8.3125 8.03125C8.4375 7.90625 8.59375 7.84375 8.78125 7.84375C8.88542 7.84375 8.95833 7.85417 9 7.875C9.75 8.125 10.5312 8.25 11.3438 8.25Z" fill="black"/>
</svg>
