<svg width="14" height="12" viewBox="0 0 14 12" fill="none" xmlns="http://www.w3.org/2000/svg">
<path d="M12.3438 0H1.65625C1.30208 0 0.989583 0.135417 0.71875 0.40625C0.46875 0.65625 0.34375 0.96875 0.34375 1.34375V10.6562C0.34375 11.0312 0.46875 11.3542 0.71875 11.625C0.989583 11.875 1.30208 12 1.65625 12H12.3438C12.6979 12 13 11.875 13.25 11.625C13.5208 11.3542 13.6562 11.0312 13.6562 10.6562V1.34375C13.6562 0.96875 13.5208 0.65625 13.25 0.40625C13 0.135417 12.6979 0 12.3438 0ZM5.65625 9.34375H2.34375V8H5.65625V9.34375ZM5.65625 6.65625H2.34375V5.34375H5.65625V6.65625ZM5.65625 4H2.34375V2.65625H5.65625V4ZM8.875 8L7 6.09375L7.9375 5.15625L8.875 6.125L11 4L11.9375 4.9375L8.875 8Z" fill="black"/>
</svg>
