<svg width="16" height="10" viewBox="0 0 16 10" fill="none" xmlns="http://www.w3.org/2000/svg">
<path d="M10.6562 5.65625C11.2396 5.65625 11.875 5.73958 12.5625 5.90625C13.25 6.07292 13.8854 6.34375 14.4688 6.71875C15.0521 7.09375 15.3438 7.52083 15.3438 8V9.65625H11.3438V8C11.3438 7.08333 10.9062 6.3125 10.0312 5.6875C10.1771 5.66667 10.3854 5.65625 10.6562 5.65625ZM3.4375 5.90625C4.125 5.73958 4.76042 5.65625 5.34375 5.65625C5.92708 5.65625 6.5625 5.73958 7.25 5.90625C7.9375 6.07292 8.5625 6.34375 9.125 6.71875C9.70833 7.09375 10 7.52083 10 8V9.65625H0.65625V8C0.65625 7.52083 0.947917 7.09375 1.53125 6.71875C2.11458 6.34375 2.75 6.07292 3.4375 5.90625ZM6.71875 3.75C6.34375 4.14583 5.88542 4.34375 5.34375 4.34375C4.80208 4.34375 4.33333 4.14583 3.9375 3.75C3.54167 3.35417 3.34375 2.88542 3.34375 2.34375C3.34375 1.80208 3.54167 1.33333 3.9375 0.9375C4.33333 0.541667 4.80208 0.34375 5.34375 0.34375C5.88542 0.34375 6.34375 0.541667 6.71875 0.9375C7.11458 1.33333 7.3125 1.80208 7.3125 2.34375C7.3125 2.88542 7.11458 3.35417 6.71875 3.75ZM12.0625 3.75C11.6667 4.14583 11.1979 4.34375 10.6562 4.34375C10.1146 4.34375 9.64583 4.14583 9.25 3.75C8.85417 3.35417 8.65625 2.88542 8.65625 2.34375C8.65625 1.80208 8.85417 1.33333 9.25 0.9375C9.64583 0.541667 10.1146 0.34375 10.6562 0.34375C11.1979 0.34375 11.6667 0.541667 12.0625 0.9375C12.4583 1.33333 12.6562 1.80208 12.6562 2.34375C12.6562 2.88542 12.4583 3.35417 12.0625 3.75Z" fill="black"/>
</svg>
